<svg id="Rectangles" xmlns="http://www.w3.org/2000/svg" viewBox="0 0 309.33 343.83"><defs><style>.cls-1,.cls-5{fill:#fff;}.cls-2,.cls-3,.cls-4,.cls-6{fill:none;}.cls-2,.cls-3,.cls-4,.cls-5,.cls-6{stroke:#000;}.cls-2,.cls-3,.cls-5,.cls-6{stroke-miterlimit:10;}.cls-2,.cls-4{stroke-width:2px;}.cls-3{stroke-width:5px;}.cls-4{stroke-linecap:round;stroke-linejoin:round;}.cls-7{font-size:12px;}.cls-7,.cls-8,.cls-9{font-family:Myriad Pro;}.cls-8{font-size:7px;}.cls-9{font-size:11px;}</style></defs><title>floorplan-text</title><polygon class="cls-1" points="149 208.3 107.83 208.33 107.83 196 1 196 1 341.76 149 341.76 149 208.3"/><polygon class="cls-1" points="308.33 95 308.33 196 288.33 196 288.33 208.33 221.66 208.33 221.66 196 182 196 182 95 308.33 95"/><rect class="cls-1" x="241.33" y="1" width="67" height="94"/><rect class="cls-1" x="141.67" y="1" width="99.67" height="94"/><rect class="cls-1" x="1" y="1" width="140.67" height="94"/><rect class="cls-1" x="1" y="95" width="80.67" height="101"/><rect class="cls-1" x="107.83" y="155.19" width="41.17" height="53.14"/><rect class="cls-1" x="108.03" y="134.33" width="41.17" height="19.67"/><rect class="cls-1" x="107.83" y="95" width="41.17" height="39.33"/><rect class="cls-1" x="149" y="95" width="33" height="99.67"/><rect class="cls-1" x="81.67" y="95" width="26.17" height="101"/><polyline class="cls-2" points="1 203.5 1 1 308.33 1 308.33 196 288.33 196 288.33 208.33 221.66 208.33 221.66 196 174.71 196"/><polyline class="cls-2" points="1 222.11 1 341.33 19.67 341.33"/><polyline class="cls-2" points="128.42 341.33 149 341.33 149 95 107 95"/><line class="cls-2" x1="155.83" y1="195.81" x2="149" y2="195.81"/><line class="cls-2" x1="182" y1="182.17" x2="182" y2="195.81"/><line class="cls-2" x1="182" y1="141.33" x2="182" y2="95"/><line class="cls-2" x1="167.4" y1="95" x2="262.67" y2="95"/><line class="cls-2" x1="296" y1="95" x2="308.33" y2="95"/><line class="cls-2" x1="241" y1="1" x2="241" y2="58.38"/><line class="cls-2" x1="241" y1="77.25" x2="241" y2="95"/><path class="cls-2" d="M225.67,174" transform="translate(-118.67 -79)"/><line class="cls-2" x1="141" y1="1" x2="141" y2="28.83"/><line class="cls-2" x1="141" y1="67.17" x2="141" y2="95"/><polyline class="cls-2" points="1 95 81.67 95 81.67 115.33"/><polyline class="cls-2" points="1 196 81.67 196 81.67 134.04"/><polyline class="cls-2" points="149 134.33 108 134.33 108 138.33"/><polyline class="cls-2" points="149 208.33 108 208.33 108 196 100.54 196"/><line class="cls-2" x1="149" y1="155" x2="108" y2="155"/><line class="cls-2" x1="108" y1="170.02" x2="108" y2="150.33"/><line class="cls-3" x1="19.67" y1="341.33" x2="128.42" y2="341.33"/><path class="cls-2" d="M314.67,163.36" transform="translate(-118.67 -79)"/><path class="cls-2" d="M388.32,120.83" transform="translate(-118.67 -79)"/><path class="cls-4" d="M343.32,146.81a18.87,18.87,0,0,0,16.35,9.44" transform="translate(-118.67 -79)"/><path class="cls-4" d="M277.1,157.65A18.87,18.87,0,0,0,267.67,174" transform="translate(-118.67 -79)"/><path class="cls-4" d="M283.94,258.46a18.87,18.87,0,0,1,9.44,16.35" transform="translate(-118.67 -79)"/><path class="cls-4" d="M184,203.61A18.87,18.87,0,0,0,200.33,213" transform="translate(-118.67 -79)"/><path class="cls-4" d="M209.77,258.65A18.87,18.87,0,0,1,219.21,275" transform="translate(-118.67 -79)"/><path class="cls-4" d="M243,258.46A18.87,18.87,0,0,0,226.69,249" transform="translate(-118.67 -79)"/><line class="cls-2" x1="108" y1="196" x2="108" y2="188.89"/><line class="cls-4" x1="241" y1="58.38" x2="227.65" y2="71.72"/><line class="cls-4" x1="167.4" y1="95" x2="154.29" y2="81.9"/><line class="cls-4" x1="155.83" y1="195.81" x2="169.18" y2="182.46"/><path class="cls-4" d="M136,291.68a18.87,18.87,0,0,1-16.35,9.44" transform="translate(-118.67 -79)"/><line class="cls-4" x1="81.67" y1="115.33" x2="68.41" y2="128.59"/><line class="cls-4" x1="1" y1="203.5" x2="14.21" y2="216.71"/><line class="cls-4" x1="81.67" y1="196" x2="95" y2="182.67"/><line class="cls-4" x1="108" y1="188.89" x2="121.35" y2="175.54"/><path class="cls-4" d="M237.08,223.36a12,12,0,0,1-10.44,6" transform="translate(-118.67 -79)"/><line class="cls-4" x1="107.98" y1="138.33" x2="116.5" y2="146.85"/><rect class="cls-5" x="107.98" y="97.08" width="38.85" height="35.18"/><line class="cls-6" x1="108.03" y1="114.67" x2="130.67" y2="114.67"/><line class="cls-6" x1="107.98" y1="97.08" x2="107.98" y2="132.25"/><line class="cls-6" x1="112.66" y1="97.08" x2="112.66" y2="132.25"/><line class="cls-6" x1="117.1" y1="97.08" x2="117.1" y2="132.25"/><line class="cls-6" x1="121.78" y1="97.08" x2="121.78" y2="132.25"/><line class="cls-6" x1="125.99" y1="97.08" x2="125.99" y2="132.25"/><line class="cls-6" x1="130.67" y1="97.08" x2="130.67" y2="132.25"/><path class="cls-6" d="M222.69,204.46h26.65a10.79,10.79,0,1,0,0-21.58H238.69" transform="translate(-118.67 -79)"/><polygon class="cls-5" points="114.58 103.88 122.74 106.88 122.74 100.88 114.58 103.88"/><text class="cls-7" transform="translate(39.02 51.52)">F<tspan x="5.3" y="0">amily </tspan><tspan x="34.93" y="0">R</tspan><tspan x="41.44" y="0">oom</tspan></text><text class="cls-7" transform="translate(172.48 51.52)">K<tspan x="6.62" y="0">i</tspan><tspan x="9.43" y="0">t</tspan><tspan x="13.33" y="0">chen</tspan></text><text class="cls-7" transform="translate(258.02 44.32)">Dining<tspan x="1.97" y="14.4">R</tspan><tspan x="8.48" y="14.4">oom</tspan></text><text class="cls-7" transform="translate(26.78 141.82)">Guest<tspan x="-8.61" y="14.4">B</tspan><tspan x="-2.06" y="14.4">ed</tspan><tspan x="10.72" y="14.4">r</tspan><tspan x="14.53" y="14.4">oom</tspan></text><text class="cls-7" transform="translate(57 272.62)">G<tspan x="7.85" y="0">a</tspan><tspan x="13.63" y="0">r</tspan><tspan x="17.5" y="0">age</tspan></text><text class="cls-7" transform="translate(213.84 155.19)">Living <tspan x="32.96" y="0">R</tspan><tspan x="39.47" y="0">oom</tspan></text><text class="cls-8" transform="translate(113.87 194.67)">B<tspan x="3.79" y="0">a</tspan><tspan x="7.14" y="0">th</tspan><tspan x="13.34" y="0">r</tspan><tspan x="15.56" y="0">oom</tspan></text><text class="cls-7" transform="translate(91.23 125.04) rotate(90)">Hall<tspan x="19.27" y="0">w</tspan><tspan x="28.06" y="0">a</tspan><tspan x="33.74" y="0">y</tspan></text><text class="cls-9" transform="translate(162.27 124.62) rotate(90)">E<tspan x="5.41" y="0">n</tspan><tspan x="11.47" y="0">t</tspan><tspan x="15.11" y="0">r</tspan><tspan x="18.66" y="0">an</tspan><tspan x="30.06" y="0">c</tspan><tspan x="34.92" y="0">e</tspan></text><text class="cls-8" transform="translate(122.37 146.22)">Closet</text></svg>